<svg width="94" height="94" viewBox="0 0 94 94" fill="none" xmlns="http://www.w3.org/2000/svg">
<g clip-path="url(#clip0_27_50)">
<path d="M47 94C72.9574 94 94 72.9574 94 47C94 21.0426 72.9574 0 47 0C21.0426 0 0 21.0426 0 47C0 72.9574 21.0426 94 47 94Z" fill="white"/>
<path d="M74.0911 42.2192C72.878 36.1837 69.6722 30.7307 64.9885 26.7354C60.3047 22.7402 54.4145 20.4343 48.2631 20.188C49.3852 17.0941 49.3277 13.6952 48.1016 10.6411C46.6641 13.8813 44.5333 16.7666 41.8594 19.0938C40.72 20.1692 39.4221 21.0634 38.0113 21.7449C36.6126 22.2837 35.2446 22.8991 33.9135 23.5881C28.7305 26.4739 24.6116 30.9482 22.1635 36.3516C20.753 39.4773 19.9434 42.8405 19.7767 46.2656C22.8096 45.3167 25.9004 44.5636 29.0299 44.0111C31.8058 43.5264 34.6185 43.2767 37.4091 42.9022C42.5497 42.1678 46.5961 39.1863 49.4308 34.8241C53.0142 35.9767 56.0138 38.4689 57.8037 41.7803C59.5935 45.0918 60.0351 48.9666 59.0363 52.5958C58.0376 56.2251 55.6756 59.3283 52.4436 61.2578C49.2115 63.1872 45.359 63.7937 41.6905 62.9506C43.1047 66.1259 45.3375 68.8682 48.1603 70.8966C49.5973 71.9265 51.1689 72.7542 52.831 73.3567C53.5677 73.7203 54.3817 73.8992 55.203 73.8781C56.1526 73.6478 57.0738 73.3128 57.9495 72.8794C63.761 70.4063 68.5416 66.0043 71.4848 60.4162C74.4281 54.8281 75.3538 48.3959 74.1058 42.2046L74.0911 42.2192ZM29.9699 33.0469C30.766 32.2539 31.7335 31.6541 32.7979 31.2938C33.8622 30.9335 34.9951 30.8222 36.1092 30.9686C36.2411 32.0782 36.1198 33.2033 35.7544 34.2594C35.389 35.3154 34.789 36.2749 33.9996 37.0657C33.2101 37.8566 32.2517 38.4582 31.1964 38.8255C30.141 39.1928 29.0161 39.3161 27.9063 39.1863C27.758 38.0733 27.8669 36.9411 28.2247 35.8768C28.5824 34.8125 29.1794 33.8444 29.9699 33.0469ZM44.3636 74.9503C38.6339 74.3569 33.2358 71.9769 28.9329 68.1471C24.63 64.3174 21.6401 59.2317 20.3863 53.6094C26.3605 50.3562 33.0831 48.7255 39.8839 48.88C37.5642 52.4055 36.47 56.5968 36.7702 60.8063C36.9538 63.5691 37.7264 66.2606 39.0361 68.7001C40.3458 71.1397 42.1623 73.2708 44.3636 74.9503Z" fill="#096DC4"/>
</g>
<defs>
<clipPath id="clip0_27_50">
<rect width="94" height="94" fill="white"/>
</clipPath>
</defs>
</svg>
