<svg width="64" height="64" viewBox="0 0 64 64" fill="none" xmlns="http://www.w3.org/2000/svg">
<path d="M32.0126 62.5198C48.8613 62.5198 62.5198 48.8612 62.5198 32.0125C62.5198 15.1639 48.8613 1.50529 32.0126 1.50529C15.1639 1.50529 1.50531 15.1639 1.50531 32.0125C1.50531 48.8612 15.1639 62.5198 32.0126 62.5198Z" fill="white"/>
<path fill-rule="evenodd" clip-rule="evenodd" d="M18.5563 45.1808L25.7664 43.0902L31.9937 54.4768C32.002 54.4916 32.0231 54.4916 32.0311 54.4768L38.2585 43.0902L45.4686 45.1808C45.4847 45.1856 45.4997 45.1706 45.495 45.1542L43.4041 38.0869L54.4765 32.0311C54.4913 32.0231 54.4913 32.0018 54.4765 31.9937L43.3128 25.888L45.495 18.5121C45.4997 18.496 45.4847 18.481 45.4686 18.4855L38.0894 20.6253L32.0311 9.54807C32.0231 9.53327 32.0018 9.53327 31.9937 9.54807L25.9354 20.6253L18.5563 18.4855C18.5402 18.4807 18.5251 18.4958 18.5299 18.5121L20.7121 25.888L9.54833 31.9937C9.53353 32.0018 9.53353 32.0231 9.54833 32.0311L20.6208 38.0869L18.5299 45.1542C18.5251 45.1706 18.5402 45.1856 18.5563 45.1808ZM24.1512 32.0903L29.2591 34.8839L32.0527 39.9919C32.0607 40.0067 32.0821 40.0067 32.0901 39.9919L34.8837 34.8839L39.9916 32.0903C40.0064 32.0823 40.0064 32.061 39.9916 32.0529L34.8837 29.2594L32.0901 24.1514C32.0821 24.1366 32.0607 24.1366 32.0527 24.1514L29.2591 29.2594L24.1512 32.0529C24.1366 32.061 24.1366 32.082 24.1512 32.0903Z" fill="#D685AD"/>
</svg>
