<svg width="64" height="64" viewBox="0 0 64 64" fill="none" xmlns="http://www.w3.org/2000/svg">
<g clip-path="url(#clip0_14_68)">
<path d="M32 64C49.6731 64 64 49.6731 64 32C64 14.3269 49.6731 0 32 0C14.3269 0 0 14.3269 0 32C0 49.6731 14.3269 64 32 64Z" fill="white"/>
<path d="M49 38.04C46.895 41.6 44.265 43.14 40.875 43.54C40.05 43.63 39.205 43.54 38.375 43.665C37.78 43.74 37.375 44.38 37.875 44.665C40.305 46 38.105 46.63 37.44 47.165C34.9168 49.1372 31.837 50.2655 28.637 50.3902C25.4369 50.5149 22.2787 49.6297 19.6096 47.8599C16.9406 46.0901 14.896 43.5255 13.7653 40.5292C12.6347 37.5329 12.4754 34.2569 13.31 31.165C14.1152 28.074 15.8821 25.3189 18.3554 23.2976C20.8287 21.2764 23.8805 20.0936 27.07 19.92C31.22 19.735 35.39 19.755 39.57 19.87C44.915 20 49.81 19 53.735 14.655C54.46 15.86 54.155 16.92 53.98 17.9C53.3505 21.4124 51.5193 24.5965 48.8001 26.9071C46.0809 29.2176 42.6429 30.5108 39.075 30.565C37.575 30.6 36.075 30.565 34.575 30.605C34.075 30.605 33.505 30.72 33.5 31.355C33.5 31.855 34 31.995 34.415 31.97C39.915 31.695 45.635 33.19 50.635 29.6C51 29.335 51.435 28.815 51.91 29.35C52.3 29.785 52.015 30.295 51.77 30.73C49.55 34.695 46.245 37.085 41.66 37.5C40.34 37.62 39 37.5 37.66 37.575C36.89 37.615 35.59 37.215 35.55 38.25C35.505 39.44 36.83 38.96 37.55 38.95C41.18 38.91 44.835 39.41 49 38.04Z" fill="#92AADE"/>
</g>
<defs>
<clipPath id="clip0_14_68">
<rect width="64" height="64" fill="white"/>
</clipPath>
</defs>
</svg>
