<svg width="94" height="94" viewBox="0 0 94 94" fill="none" xmlns="http://www.w3.org/2000/svg">
<path d="M47 94C72.9574 94 94 72.9574 94 47C94 21.0426 72.9574 0 47 0C21.0426 0 0 21.0426 0 47C0 72.9574 21.0426 94 47 94Z" fill="white"/>
<path d="M73.6211 46.2657C73.6211 21.8477 43.3281 8.95947 25.7031 25.9015C7.9606 42.9977 20.1659 73.7754 44.7968 74.5245C57.6484 74.5245 63.5528 73.4449 72.6443 71.117C69.8974 69.9927 67.3581 68.4165 65.1317 66.4537C67.8222 63.8253 69.9593 60.6851 71.4173 57.2179C72.8753 53.7508 73.6246 50.0269 73.6211 46.2657ZM33.9648 48.4688C32.3352 48.4657 30.761 47.8769 29.5294 46.8098C28.2978 45.7427 27.4909 44.2683 27.2558 42.6558C27.0207 41.0432 27.3732 39.3999 28.2489 38.0256C29.1246 36.6512 30.4652 35.6375 32.0261 35.1693C31.9767 35.5 31.9497 35.8337 31.9453 36.1681C31.9428 37.2266 32.1883 38.271 32.662 39.2176C33.1358 40.1642 33.8246 40.9867 34.6734 41.6191C35.5222 42.2516 36.5073 42.6765 37.5499 42.8598C38.5924 43.0431 39.6634 42.9797 40.677 42.6746C40.4377 44.2843 39.6286 45.7546 38.3967 46.818C37.1648 47.8814 35.5922 48.4672 33.9648 48.4688ZM56.6497 48.4688C55.0219 48.4687 53.4484 47.8834 52.2162 46.8197C50.9841 45.7561 50.1753 44.2849 49.9375 42.6746C50.9511 42.9797 52.0221 43.0431 53.0646 42.8598C54.1071 42.6765 55.0923 42.2516 55.9411 41.6191C56.7898 40.9867 57.4787 40.1642 57.9525 39.2176C58.4262 38.271 58.6717 37.2266 58.6692 36.1681C58.6648 35.8337 58.6378 35.5 58.5884 35.1693C60.1493 35.6375 61.4899 36.6512 62.3656 38.0256C63.2413 39.3999 63.5938 41.0432 63.3587 42.6558C63.1236 44.2683 62.3167 45.7427 61.0851 46.8098C59.8535 47.8769 58.2793 48.4657 56.6497 48.4688Z" fill="#5269AC"/>
</svg>
