<svg width="94" height="94" viewBox="0 0 94 94" fill="none" xmlns="http://www.w3.org/2000/svg">
<g clip-path="url(#clip0_16_12)">
<path d="M47 94C72.9574 94 94 72.9574 94 47C94 21.0426 72.9574 0 47 0C21.0426 0 0 21.0426 0 47C0 72.9574 21.0426 94 47 94Z" fill="white"/>
<path d="M73.2612 19.3654C71.2711 17.6176 63.3178 19.5343 61.0559 19.806C53.5582 20.6267 46.1714 22.2567 39.0247 24.6676C31.6442 27.2746 25.6223 31.0346 22.134 38.327C20.0099 42.8807 19.1867 47.9333 19.7557 52.9258C20.3247 57.9183 22.2636 62.6561 25.358 66.6151C26.9662 64.904 29.2722 63.1782 30.5426 61.2101C32.239 58.5884 31.3137 53.3523 31.4386 50.0623C31.4753 49.0929 31.8351 35.6759 32.4887 35.6318C33.2819 35.5804 35.3308 48.7478 36.0651 53.6534C36.0926 53.8096 36.1617 53.9555 36.2652 54.0757C36.3687 54.1959 36.5027 54.286 36.6531 54.3363C36.8035 54.3867 36.9648 54.3956 37.1198 54.362C37.2748 54.3284 37.4179 54.2536 37.5339 54.1454C39.2817 52.4172 41.0369 50.7036 42.7994 49.0048C44.0037 47.8371 44.6059 47.3818 44.929 45.8617C45.2522 44.3415 45.0098 42.2706 45.1126 40.6623C45.1714 39.7076 45.847 27.6198 46.7136 27.561C47.5801 27.5023 49.394 36.9831 50.0697 40.5301C50.1022 40.6491 50.1642 40.758 50.25 40.8467C50.3357 40.9354 50.4424 41.0011 50.5602 41.0377C50.678 41.0743 50.8032 41.0806 50.9241 41.0561C51.045 41.0315 51.1578 40.9769 51.252 40.8973C54.8211 37.4384 65.9395 26.6284 66.4609 27.1131C66.9823 27.5978 57.7512 40.0087 54.7917 44.0037C54.7252 44.1077 54.6859 44.2268 54.6776 44.35C54.6693 44.4732 54.6922 44.5965 54.7442 44.7085C54.7962 44.8205 54.8756 44.9176 54.975 44.9908C55.0744 45.064 55.1907 45.1109 55.3131 45.1273C58.9189 45.3256 68.5319 45.9498 68.6126 46.7429C68.6934 47.536 56.7011 49.886 55.8345 50.0549C54.3658 50.356 52.7281 50.4589 51.2594 50.8407C49.3794 51.3328 49.0562 51.7954 47.8739 53.4404C46.4051 55.3987 44.9364 57.3571 43.4676 59.3154C43.3688 59.446 43.3079 59.6014 43.2919 59.7644C43.2758 59.9275 43.3051 60.0917 43.3765 60.2392C43.4479 60.3866 43.5587 60.5114 43.6966 60.5998C43.8345 60.6882 43.9942 60.7367 44.158 60.7401C49.1223 60.8209 62.4365 61.122 62.5173 61.9151C62.554 62.576 49.2986 64.691 48.3439 64.8526C45.3109 65.374 40.185 65.1684 37.7542 66.7693C35.8815 68.0031 34.1558 71.3078 32.7311 73.0556C36.9201 75.5277 41.6953 76.8316 46.5594 76.8316C51.4234 76.8316 56.1986 75.5277 60.3876 73.0556C67.4376 68.8476 70.6689 62.4512 72.3873 54.6962C73.934 47.178 74.6238 39.5087 74.4436 31.8351C74.4436 29.0445 74.3408 26.2465 74.0617 23.4706C73.9515 22.5379 74.047 20.0557 73.2612 19.3654Z" fill="#63BB5B"/>
</g>
<defs>
<clipPath id="clip0_16_12">
<rect width="94" height="94" fill="white"/>
</clipPath>
</defs>
</svg>
