<svg width="64" height="65" viewBox="0 0 64 65" fill="none"
    xmlns="http://www.w3.org/2000/svg">
    <path d="M32.0126 62.6464C48.8613 62.6464 62.5198 48.9878 62.5198 32.1391C62.5198 15.2905 48.8613 1.6319 32.0126 1.6319C15.1639 1.6319 1.50531 15.2905 1.50531 32.1391C1.50531 48.9878 15.1639 62.6464 32.0126 62.6464Z" fill="white"/>
    <path d="M20.0725 26.8433L30.9696 32.1452L20.0725 37.435L9.17523 32.1464L20.0725 26.8433Z" fill="#99DEF3"/>
    <path d="M43.9525 26.8433L33.0554 32.1452L43.9525 37.435L54.8498 32.1464L43.9525 26.8433Z" fill="#99DEF3"/>
    <path d="M43.9525 13.2043L33.0554 18.94V30.171L33.1382 30.1299L33.293 30.0528L43.9495 24.7502L43.9492 24.7499L43.9525 24.7484V13.2043Z" fill="#99DEF3"/>
    <path d="M43.9525 51.074L33.0554 45.3383V34.1073L33.1382 34.1485L33.293 34.2255L43.9495 39.5281L43.9492 39.5284L43.9525 39.5299V51.074Z" fill="#99DEF3"/>
    <path d="M20.0726 13.2043L30.9696 18.94V30.171L30.8868 30.1299L30.732 30.0528L20.0756 24.7502L20.0758 24.7499L20.0726 24.7484V13.2043Z" fill="#99DEF3"/>
    <path d="M20.0726 51.074L30.9696 45.3383V34.1073L30.8868 34.1485L30.732 34.2255L20.0756 39.5281L20.0758 39.5284L20.0726 39.5299V51.074Z" fill="#99DEF3"/>
</svg>
